<?xml version="1.0" ?><svg id="Layer_1_1_" style="enable-background:new 0 0 64 64;" version="1.1" viewBox="0 0 64 64" xml:space="preserve" xmlns="http://www.w3.org/2000/svg" xmlns:xlink="http://www.w3.org/1999/xlink"><path d="M1.553,22.895L3,23.618V27c0,0.197,0.059,0.391,0.168,0.555L5,30.303V33c0,0.197,0.059,0.391,0.168,0.555l3.904,5.856  l0.958,3.832c0.044,0.176,0.135,0.336,0.263,0.464l4.794,4.794l1.937,8.716c0.092,0.414,0.434,0.724,0.854,0.776  C17.919,57.998,17.96,58,18,58c0.375,0,0.723-0.211,0.894-0.553l5-10c0.091-0.182,0.124-0.387,0.095-0.589l-1-7  c-0.046-0.325-0.249-0.606-0.542-0.753l-4-2c-0.08-0.04-0.164-0.069-0.251-0.086l-4.625-0.925L11,32.667V31h1.586l1.707,1.707  C14.48,32.895,14.735,33,15,33h2c0.552,0,1-0.448,1-1v-1.586l2.707-2.707c0.11-0.11,0.192-0.244,0.242-0.391l1-3  c0.068-0.206,0.068-0.427,0-0.633l-1-3c-0.07-0.211-0.209-0.392-0.394-0.516L18,18.465V15c0-0.127-0.024-0.253-0.071-0.372l-2-5  c-0.125-0.312-0.398-0.541-0.728-0.608c-0.329-0.067-0.67,0.035-0.908,0.272l-2.833,2.833l-2.776,0.925  c-0.251,0.084-0.459,0.264-0.578,0.501L6.517,16.73l-4.146-1.659c-0.309-0.122-0.657-0.085-0.932,0.101C1.165,15.358,1,15.668,1,16  v6C1,22.379,1.214,22.725,1.553,22.895z M3,17.477l3.628,1.452c0.484,0.191,1.033-0.017,1.266-0.481l1.814-3.629l2.607-0.869  c0.147-0.049,0.281-0.132,0.391-0.242l1.928-1.928L16,15.192V19c0,0.334,0.167,0.646,0.445,0.832l2.714,1.81L19.946,24l-0.82,2.46  l-2.833,2.833C16.105,29.48,16,29.735,16,30v1h-0.586l-1.707-1.707C13.52,29.105,13.265,29,13,29h-3c-0.552,0-1,0.448-1,1v3  c0,0.216,0.07,0.427,0.2,0.6l3,4c0.147,0.197,0.362,0.332,0.604,0.38l4.869,0.974l3.412,1.706l0.882,6.172l-3.601,7.202l-1.389-6.25  c-0.041-0.186-0.134-0.356-0.269-0.49l-4.804-4.804l-0.933-3.731c-0.028-0.111-0.075-0.217-0.138-0.312L7,32.697V30  c0-0.197-0.059-0.391-0.168-0.555L5,26.697V23c0-0.379-0.214-0.725-0.553-0.895L3,21.382V17.477z"/><path d="M19.051,14.316l1,3c0.064,0.193,0.186,0.361,0.349,0.483l4,3c0.175,0.131,0.386,0.2,0.6,0.2c0.077,0,0.154-0.009,0.23-0.027  c0.289-0.068,0.532-0.261,0.665-0.526l4-8C29.964,12.309,30,12.155,30,12V9c0-0.431-0.275-0.812-0.684-0.949l-3-1  C26.214,7.017,26.107,7,26,7h-3c-0.155,0-0.309,0.036-0.447,0.105l-4,2c-0.419,0.209-0.637,0.682-0.523,1.137L19.051,14.316z   M23.236,9h2.602L28,9.721v2.043l-3.358,6.717l-2.792-2.094l-0.879-2.63l-0.806-3.222L23.236,9z"/><path d="M37.443,15.094l-2.889-1.926c-0.336-0.224-0.773-0.224-1.109,0l-3,2c-0.145,0.097-0.262,0.229-0.34,0.385l-2,4  c-0.155,0.31-0.138,0.678,0.044,0.973C28.332,20.82,28.653,21,29,21h1.697l1.5,1l-4.752,3.168c-0.145,0.097-0.262,0.229-0.34,0.385  l-1,2c-0.141,0.282-0.141,0.613,0,0.895l0.678,1.355l-2.49,2.49C24.105,32.48,24,32.735,24,33v3c0,0.155,0.036,0.309,0.105,0.447  l2,4c0.131,0.261,0.369,0.452,0.652,0.523l3.348,0.837l0.905,6.334c0.03,0.214,0.13,0.413,0.283,0.565l2,2  C33.485,50.899,33.741,51,34,51c0.151,0,0.305-0.035,0.447-0.105l4-2C38.786,48.725,39,48.379,39,48v-4.764l1.895-3.789  c0.226-0.451,0.08-1-0.34-1.279L38,36.465v-1.078l1.684,0.562c0.252,0.083,0.527,0.064,0.764-0.054l1.355-0.678l3.49,3.49  c0.227,0.227,0.548,0.327,0.867,0.28c0.317-0.052,0.59-0.252,0.734-0.54l1.927-3.855l0.741-0.741l1.488,4.465  c0.07,0.211,0.209,0.392,0.394,0.516l3,2c0.271,0.181,0.612,0.219,0.916,0.101c0.303-0.117,0.53-0.375,0.609-0.69l1-4  c0.068-0.273,0.018-0.563-0.138-0.797l-1.445-2.168l2.168-1.445c0.221-0.147,0.374-0.376,0.426-0.636l1-5  c0.052-0.26-0.001-0.53-0.148-0.751l-1.545-2.318l0.225-0.225l3.731-0.933c0.332-0.083,0.598-0.33,0.706-0.654l1-3  c0.157-0.472-0.057-0.988-0.501-1.211l-12-6c-0.281-0.141-0.613-0.141-0.895,0l-9.629,4.815L37.443,15.094z M40.447,17.895  L50,13.118l10.777,5.388l-0.552,1.657l-3.468,0.867c-0.176,0.044-0.336,0.135-0.464,0.263l-1,1c-0.337,0.337-0.39,0.865-0.125,1.262  l1.77,2.655l-0.837,4.188l-2.655,1.77c-0.459,0.306-0.583,0.927-0.277,1.387l1.754,2.632l-0.548,2.194l-1.534-1.022l-1.892-5.675  c-0.11-0.329-0.382-0.577-0.719-0.657c-0.34-0.082-0.692,0.021-0.937,0.266l-2,2c-0.076,0.076-0.139,0.164-0.188,0.26l-1.379,2.759  l-3.019-3.019c-0.304-0.304-0.768-0.38-1.154-0.188l-1.629,0.815l-2.607-0.869c-0.306-0.102-0.64-0.051-0.901,0.138  C36.154,33.377,36,33.679,36,34v3c0,0.334,0.167,0.646,0.445,0.832l2.266,1.51l-1.605,3.21C37.036,42.691,37,42.845,37,43v4.382  l-2.803,1.401l-1.254-1.254l-0.953-6.67c-0.057-0.402-0.353-0.73-0.747-0.829l-3.554-0.888L26,35.764v-2.35l2.707-2.707  c0.304-0.304,0.38-0.769,0.188-1.154L28.118,28l0.658-1.315l5.779-3.853C34.833,22.646,35,22.334,35,22s-0.167-0.646-0.445-0.832  l-3-2C31.391,19.059,31.197,19,31,19h-0.382l1.158-2.315L34,15.202l2.445,1.63c0.074,0.049,0.154,0.088,0.238,0.117l3,1  C39.936,18.033,40.21,18.012,40.447,17.895z"/><path d="M59.8,43.4c-0.29-0.387-0.815-0.51-1.247-0.294l-1.629,0.815l-2.607-0.869c-0.36-0.12-0.755-0.026-1.023,0.242l-3,3  C50.105,46.48,50,46.735,50,47v2c0,0.197,0.059,0.391,0.168,0.555l2,3c0.235,0.352,0.664,0.516,1.075,0.416l3.571-0.893l2.632,1.754  C59.611,53.943,59.805,54,60,54c0.1,0,0.2-0.015,0.296-0.045c0.288-0.089,0.52-0.304,0.632-0.583l2-5  c0.129-0.324,0.081-0.692-0.129-0.972L59.8,43.4z M59.529,51.484l-1.975-1.316C57.389,50.058,57.196,50,57,50  c-0.081,0-0.163,0.01-0.243,0.03l-3.316,0.829L52,48.697v-1.283l2.27-2.27l2.414,0.805c0.252,0.084,0.527,0.063,0.764-0.054  l1.253-0.627l2.162,2.883L59.529,51.484z"/><path d="M53,26L53,26c-0.552,0-1,0.448-1,1v0c0,0.552,0.448,1,1,1l0,0c0.552,0,1-0.448,1-1v0C54,26.448,53.552,26,53,26z"/><path d="M50,25L50,25c0.552,0,1-0.448,1-1v0c0-0.552-0.448-1-1-1l0,0c-0.552,0-1,0.448-1,1v0C49,24.552,49.448,25,50,25z"/><path d="M48,29L48,29c0.552,0,1-0.448,1-1v0c0-0.552-0.448-1-1-1l0,0c-0.552,0-1,0.448-1,1v0C47,28.552,47.448,29,48,29z"/><path d="M46,22L46,22c-0.552,0-1,0.448-1,1v0c0,0.552,0.448,1,1,1l0,0c0.552,0,1-0.448,1-1v0C47,22.448,46.552,22,46,22z"/><path d="M53,20L53,20c-0.552,0-1,0.448-1,1v0c0,0.552,0.448,1,1,1l0,0c0.552,0,1-0.448,1-1v0C54,20.448,53.552,20,53,20z"/><path d="M49,19L49,19c-0.552,0-1,0.448-1,1v0c0,0.552,0.448,1,1,1l0,0c0.552,0,1-0.448,1-1v0C50,19.448,49.552,19,49,19z"/></svg>