<?xml version="1.0" encoding="iso-8859-1"?>
<!-- Generator: Adobe Illustrator 16.0.0, SVG Export Plug-In . SVG Version: 6.00 Build 0)  -->
<!DOCTYPE svg PUBLIC "-//W3C//DTD SVG 1.1//EN" "http://www.w3.org/Graphics/SVG/1.1/DTD/svg11.dtd">
<svg version="1.1" id="Capa_1" xmlns="http://www.w3.org/2000/svg" xmlns:xlink="http://www.w3.org/1999/xlink" x="0px" y="0px"
	 width="593.908px" height="593.908px" viewBox="0 0 593.908 593.908" style="enable-background:new 0 0 593.908 593.908;"
	 xml:space="preserve">
<g>
	<path d="M199.84,372.662l0.063-0.118c-56.001-3.684-100.408-50.204-100.408-107.122V108.894V72.655V49.404
		c0.441-5.742,3.557-17.009,21.289-17.009H288.69c0,0,25.687-0.695,25.687,30.788v9.472v36.239v29.175
		c0.063,3.711,1.235,17.463,15.359,17.463h5.106c4.725-0.454,12.647-3.293,12.647-17.722V14.578C347.49,6.419,340.912,0,332.898,0
		H80.964c-8.014,0-14.574,6.419-14.574,14.578v252.183c0,76.567,61.362,138.782,137.497,140.409
		c5.574-0.618,13.211-3.825,13.211-16.937v-3.135C217.099,371.258,199.84,372.662,199.84,372.662L199.84,372.662z"/>
	<path d="M386.978,438.776c-31.837,0-58.35,17.408-64.583,40.541c-0.108,0.545-1.871,10.885,6.633,5.434
		c0.109-0.073,0.182-0.037,0.291-0.109c15.082-10.976,35.308-17.772,57.659-17.772c23.514,0,44.721,7.505,60.039,19.499
		c0,0.036,0.019,0,0.036,0.036c4.034,2.798,5.143,1.108,5.325-1.108C449.379,459.273,421.431,438.776,386.978,438.776
		L386.978,438.776z"/>
	<path d="M365.135,337.704c3.962-4.225,0.019-10.03-0.654-10.93c-24.55-24.132-51.131-7.941-62.479,1.254
		c-0.627,0.645-4.416,4.725-1.291,8.486C326.992,357.284,346.127,354.404,365.135,337.704L365.135,337.704z"/>
	<path d="M408.329,328.055c-1.345,1.808-3.217,5.515-0.309,8.922c19.116,17.236,38.27,20.525,64.618,0
		c3.926-4.37-1.345-9.449-1.453-9.531C459.246,318.087,432.606,302.841,408.329,328.055L408.329,328.055z"/>
	<path d="M126.925,137.669c-0.104,0.086-5.788,5.37-1.758,10.04c26.217,20.375,45.289,17.091,64.364,0.009
		c3.675-4.057,0.25-8.595-0.763-9.758C164.95,113.892,139,128.32,126.925,137.669L126.925,137.669z"/>
	<path d="M234.012,136.533c-0.481,0.55-5.987,7.196-0.927,12.33c18.436,15.955,37.043,18.749,62.274-0.481
		c4.307-4.42-0.826-10.48-1.117-10.794C282.394,128.433,257.372,114.523,234.012,136.533L234.012,136.533z"/>
	<path d="M494.409,259.216v36.23v156.559c0,59.295-48.064,107.45-107.432,107.45c-59.312,0-107.463-48.155-107.463-107.45V295.446
		v-15.769V260.36v-7.805v-10.431v-6.169c0.436-5.738,3.562-17.004,21.297-17.004h167.902c0,0,25.695-0.7,25.695,30.783V259.216
		L494.409,259.216z M512.926,186.56H260.988c-8.005,0-14.564,6.424-14.564,14.583v62.92c-0.2,2.54-1.19,6.505-5.452,8.6
		c-8.404,2.185-17.236,3.657-26.581,3.648c-22.169-0.041-42.222-6.787-57.246-17.636c-0.009,0-0.077,0.078-0.077,0.078
		s-8.931-4.28-6.855,5.878c6.642,22.701,32.759,39.728,64.132,39.783c9.309,0.027,18.031-1.618,26.027-4.343l-0.019,0.055
		c0,0,0.146-0.082,0.346-0.177c0.518-0.195,1.026-0.409,1.554-0.586c1.79-0.445,4.179-0.205,4.179,4.352v149.635
		c0,77.575,62.984,140.559,140.545,140.559c77.685,0,140.54-63.001,140.54-140.559V201.143
		C527.518,192.984,520.922,186.56,512.926,186.56L512.926,186.56z"/>
</g>
<g>
</g>
<g>
</g>
<g>
</g>
<g>
</g>
<g>
</g>
<g>
</g>
<g>
</g>
<g>
</g>
<g>
</g>
<g>
</g>
<g>
</g>
<g>
</g>
<g>
</g>
<g>
</g>
<g>
</g>
</svg>
