<?xml version="1.0" ?><!DOCTYPE svg  PUBLIC '-//W3C//DTD SVG 1.1//EN'  'http://www.w3.org/Graphics/SVG/1.1/DTD/svg11.dtd'><svg class="icon" height="200.00px" version="1.1" viewBox="0 0 1024 1024" width="200px" xmlns="http://www.w3.org/2000/svg"><path d="M560 0a16 16 0 0 1 15.888 14.128L576 16v188.848l104.112 61.264a16 16 0 0 1 7.888 13.792V992h256a16 16 0 0 1 0 32H80a16 16 0 0 1 0-32h223.984V508.928a16 16 0 0 1 8-13.856l167.936-96.944L480 48a16 16 0 0 1 31.888-1.872L512 48v83.04l32-18.48V16a16 16 0 0 1 16-16z m-80 883.04l-144 83.152V992h144v-108.96z m176-549.616l-127.744 73.776L626.64 464a16 16 0 0 1 6.704 20.192l-0.848 1.664a16 16 0 0 1-21.856 5.856L512 434.768v168.832l92.64-53.456a16 16 0 0 1 17.552 26.688l-1.568 1.024-92.368 53.328 98.4 56.8a16 16 0 0 1-16.016 27.728L512 658.768v168.832l92.64-53.456a16 16 0 0 1 17.552 26.688l-1.568 1.024-92.368 53.328 98.4 56.8a16 16 0 0 1-16.016 27.728L512 882.768V992h144V333.424zM336 781.152v148.064l128.224-74.032L336 781.152z m144-122.112l-144 83.152v2l144 83.136V659.04z m-144-101.888v148.064l128.224-74.032L336 557.152z m144-122.112l-144 83.152v2l144 83.136V435.04z m69.344-208.608L512 248v131.6l144-83.136V288l-106.656-61.568zM544 149.52L512 168v43.04l32-18.48v-43.04z" fill="#000000"/></svg>