<?xml version="1.0"?>
<svg xmlns="http://www.w3.org/2000/svg" width="512" height="512" viewBox="0 0 128 128"><g><path d="M121.286,103.5l-10.411-7.066a10.116,10.116,0,0,0,4.69-8.505v-4.2a13.837,13.837,0,0,0-4.135-9.808A13,13,0,0,0,102,70.109,13.38,13.38,0,0,0,88.935,83.422v4.506a10.116,10.116,0,0,0,4.69,8.505L83.359,103.4l-8.374-5.683A13.822,13.822,0,0,0,82.435,85.5V79.436a19.177,19.177,0,0,0-5.734-13.6,18.019,18.019,0,0,0-13.054-5.274A18.525,18.525,0,0,0,45.564,79v6.5a13.823,13.823,0,0,0,7.451,12.218L44.641,103.4,34.375,96.433a10.116,10.116,0,0,0,4.69-8.505V83.422A13.38,13.38,0,0,0,26,70.109a13.062,13.062,0,0,0-9.434,3.808,13.837,13.837,0,0,0-4.135,9.808v4.2a10.116,10.116,0,0,0,4.69,8.505L6.714,103.5A15.3,15.3,0,0,0,0,116.171a1.75,1.75,0,0,0,1.75,1.75H29.325a21.313,21.313,0,0,0-1.7,8.326,1.751,1.751,0,0,0,1.75,1.75h69.25a1.751,1.751,0,0,0,1.75-1.75,21.31,21.31,0,0,0-1.7-8.326H126.25a1.751,1.751,0,0,0,1.75-1.75A15.3,15.3,0,0,0,121.286,103.5ZM3.63,114.421A11.8,11.8,0,0,1,8.68,106.4l13.086-8.882a1.75,1.75,0,0,0-.623-3.16,6.59,6.59,0,0,1-5.208-6.425v-4.2a10.314,10.314,0,0,1,3.087-7.31,9.671,9.671,0,0,1,6.916-2.807,9.863,9.863,0,0,1,9.627,9.814v4.506a6.59,6.59,0,0,1-5.208,6.425,1.75,1.75,0,0,0-.623,3.16l11.791,8-4.553,3.09a21.313,21.313,0,0,0-5.76,5.815ZM31.211,124.5a17.8,17.8,0,0,1,2.4-7.333.453.453,0,0,0,.026-.04,17.814,17.814,0,0,1,5.3-5.622L57.817,98.688a1.75,1.75,0,0,0-.623-3.16A10.288,10.288,0,0,1,49.064,85.5V79a15.008,15.008,0,0,1,14.65-14.933A14.613,14.613,0,0,1,74.25,68.338a15.66,15.66,0,0,1,4.686,11.1V85.5a10.287,10.287,0,0,1-8.129,10.028,1.75,1.75,0,0,0-.623,3.16L89.062,111.5a17.813,17.813,0,0,1,5.3,5.624l.024.037a17.794,17.794,0,0,1,2.4,7.334Zm65.576-10.076a21.309,21.309,0,0,0-5.759-5.815l-4.553-3.09,11.791-8a1.75,1.75,0,0,0-.623-3.16,6.59,6.59,0,0,1-5.208-6.425V83.422a9.863,9.863,0,0,1,9.627-9.814,9.643,9.643,0,0,1,6.916,2.807,10.314,10.314,0,0,1,3.087,7.31v4.2a6.59,6.59,0,0,1-5.208,6.425,1.75,1.75,0,0,0-.623,3.16L119.32,106.4a11.8,11.8,0,0,1,5.05,8.026Z"/><path d="M39.807,52.184l4.607.126-.574,4.346a1.75,1.75,0,0,0,2.9,1.539L64,42.887,81.264,58.2a1.75,1.75,0,0,0,2.9-1.539l-.574-4.346,4.607-.126a1.751,1.751,0,0,0,1.114-3.06L73.136,34.787l5.688-5.043a17,17,0,0,0-.9-26.2A16.843,16.843,0,0,0,67.535,0h-7.07A17.04,17.04,0,0,0,43.45,17.013a17.027,17.027,0,0,0,5.726,12.731l5.688,5.043L38.693,49.124a1.751,1.751,0,0,0,1.114,3.06ZM71.585,19.743h0a4.91,4.91,0,0,1-.8.93L64,26.687,58.049,21.41h0l-.828-.736a4.842,4.842,0,0,1-.8-.927l0,0a4.881,4.881,0,0,1,4.05-7.624h7.07a4.881,4.881,0,0,1,4.05,7.624Zm9.465-2.73A13.518,13.518,0,0,1,76.5,27.125l-6,5.323-1.009-.895-2.851-2.527L73.1,23.293a8.319,8.319,0,0,0,1.334-1.519A20.066,20.066,0,0,0,79.007,9.866,13.42,13.42,0,0,1,81.05,17.013ZM67.535,3.5a13.347,13.347,0,0,1,7.707,2.437l.065.4a16.517,16.517,0,0,1-.322,6.832,8.4,8.4,0,0,0-7.45-4.543h-7.07a8.4,8.4,0,0,0-7.45,4.543,16.517,16.517,0,0,1-.322-6.832l.065-.4A13.347,13.347,0,0,1,60.465,3.5ZM46.95,17.013a13.411,13.411,0,0,1,2.043-7.147,20.066,20.066,0,0,0,4.571,11.908A8.3,8.3,0,0,0,54.9,23.292l.811.72.022.02L83.671,48.806l-2.121.058a1.751,1.751,0,0,0-1.687,1.979l.214,1.621L65.162,39.24h0l-4.825-4.278L51.5,27.125A13.521,13.521,0,0,1,46.95,17.013ZM57.5,37.126l3.86,3.423L47.923,52.464l.214-1.621a1.751,1.751,0,0,0-1.687-1.979l-2.122-.058Z"/></g></svg>
