<svg height="512" viewBox="0 0 64 64" width="512" xmlns="http://www.w3.org/2000/svg"><g id="outline"><path d="m61 10h-4v-1a3 3 0 0 0 -3-3h-1v-1a1 1 0 0 0 -.629-.929 33.759 33.759 0 0 0 -11.371-2.071c-4.8 0-7.055.92-9 2.63-1.945-1.71-4.2-2.63-9-2.63a33.759 33.759 0 0 0 -11.371 2.071 1 1 0 0 0 -.629.929v1h-1a3 3 0 0 0 -3 3v1h-4a1 1 0 0 0 -1 1v38a3 3 0 0 0 3 3h20.132l-2.667 4h-8.465a1 1 0 0 0 -1 1v4a1 1 0 0 0 1 1h36a1 1 0 0 0 1-1v-4a1 1 0 0 0 -1-1h-8.465l-2.667-4h20.132a3 3 0 0 0 3-3v-38a1 1 0 0 0 -1-1zm-28-3.578c1.7-1.607 3.534-2.422 8-2.422a32.6 32.6 0 0 1 10 1.7v26.953a38.936 38.936 0 0 0 -18 .083zm-20-.722a32.492 32.492 0 0 1 10-1.7c4.466 0 6.3.815 8 2.422v26.314a44.116 44.116 0 0 0 -9.549-1.077 33.848 33.848 0 0 0 -8.451.994zm-4 3.3a1 1 0 0 1 1-1h1v26a1 1 0 0 0 1.35.937c.079-.029 7.888-2.846 19.408.033a.991.991 0 0 0 .484 0c11.518-2.877 19.33-.061 19.408-.033a1 1 0 0 0 1.35-.937v-26h1a1 1 0 0 1 1 1v27a1 1 0 0 1 -1 1h-20a1 1 0 0 0 -1 1 1 1 0 0 1 -2 0 1 1 0 0 0 -1-1h-20a1 1 0 0 1 -1-1zm40 49v2h-34v-2zm-9.868-2h-14.264l2.667-4h8.93zm20.868-7a1 1 0 0 1 -1 1h-54a1 1 0 0 1 -1-1v-2h56zm0-4h-56v-33h3v24a3 3 0 0 0 3 3h19.171a3 3 0 0 0 5.658 0h19.171a3 3 0 0 0 3-3v-24h3z"/><path d="m56 41h2v2h-2z"/><path d="m52 41h2v2h-2z"/><path d="m6 41h2v2h-2z"/><path d="m16.287 19.958a20.009 20.009 0 0 0 5.284-2.365 10.264 10.264 0 0 0 4.187 2.377l.484-1.94a7.925 7.925 0 0 1 -3.062-1.684 8.2 8.2 0 0 0 2.825-5.346h2v-2h-5.005v-2h-2v2h-5v2h8a6.435 6.435 0 0 1 -2.263 3.945 18.055 18.055 0 0 1 -1.877-2.461l-1.714 1.031a19.436 19.436 0 0 0 1.974 2.625 18.469 18.469 0 0 1 -4.407 1.9z"/><path d="m40.127 16h3.746l1.162 4.263 1.93-.526-3-11a1 1 0 0 0 -.965-.737h-2a1 1 0 0 0 -.965.737l-3 11 1.93.526zm1.637-6h.472l1.091 4h-2.654z"/><path d="m15 23h7v2h-7z"/><path d="m24 23h5v2h-5z"/><path d="m15 27h4v2h-4z"/><path d="m21 27h8v2h-8z"/><path d="m35 23h5v2h-5z"/><path d="m42 23h7v2h-7z"/><path d="m35 27h3v2h-3z"/><path d="m40 27h4v2h-4z"/><path d="m46 27h3v2h-3z"/></g></svg>